<svg width="18" height="19" viewBox="0 0 18 19" fill="none" xmlns="http://www.w3.org/2000/svg">
<path d="M15.9627 6.37351L11.4996 5.72487L9.50449 1.68015C9.45 1.5694 9.36035 1.47976 9.24961 1.42526C8.97188 1.28815 8.63438 1.40241 8.49551 1.68015L6.50039 5.72487L2.03731 6.37351C1.91426 6.39108 1.80176 6.44909 1.71563 6.53698C1.6115 6.64401 1.55412 6.788 1.5561 6.93731C1.55807 7.08662 1.61925 7.22904 1.72617 7.33327L4.95528 10.4815L4.19239 14.927C4.17449 15.0304 4.18594 15.1368 4.22542 15.234C4.2649 15.3313 4.33083 15.4155 4.41575 15.4772C4.50066 15.5388 4.60116 15.5755 4.70584 15.583C4.81052 15.5904 4.9152 15.5684 5.00801 15.5194L9 13.4206L12.992 15.5194C13.101 15.5774 13.2275 15.5967 13.3488 15.5757C13.6547 15.5229 13.8604 15.2329 13.8076 14.927L13.0447 10.4815L16.2738 7.33327C16.3617 7.24714 16.4197 7.13464 16.4373 7.01159C16.4848 6.70397 16.2703 6.41921 15.9627 6.37351Z" fill="url(#paint0_linear_1987_125)"/>
<defs>
<linearGradient id="paint0_linear_1987_125" x1="8.99997" y1="1.36725" x2="8.99997" y2="15.5844" gradientUnits="userSpaceOnUse">
<stop offset="0.390525" stop-color="#CECECE"/>
<stop offset="0.390625" stop-color="#F5BD50"/>
</linearGradient>
</defs>
</svg>
