<svg width="19" height="18" viewBox="0 0 19 18" fill="none" xmlns="http://www.w3.org/2000/svg">
<path d="M11.5 3.37501C11.5 4.85213 11.158 6.19651 10.6 7.20001C10.3637 7.02205 10.0946 6.89264 9.80801 6.81927C9.52147 6.74589 9.22323 6.73 8.9305 6.77251C8.6155 5.66776 7.90675 4.47751 6.86275 3.43238C6.68551 3.25484 6.50124 3.08446 6.31038 2.92163C7.22676 2.47807 8.23192 2.24842 9.25 2.25001C10.0274 2.25001 10.7744 2.38163 11.4696 2.62351C11.4899 2.86988 11.5 3.12076 11.5 3.37501ZM11.5 9.00001C11.5 9.08213 11.4955 9.16426 11.4865 9.24413C12.6318 9.22276 13.9615 8.84701 15.2339 8.11238C15.453 7.98566 15.6669 7.85018 15.8751 7.70626C15.5326 5.9526 14.5091 4.40611 13.0289 3.40538C12.9833 3.64728 12.9288 3.88744 12.8658 4.12538C12.4833 5.55301 11.8038 6.76463 11.0028 7.58926C11.3144 7.97513 11.5 8.46676 11.5 9.00001ZM11.3459 9.81901C11.2373 10.096 11.0751 10.3488 10.8685 10.563C10.6619 10.7771 10.4151 10.9482 10.1421 11.0666C10.7328 12.0454 11.7228 13.0073 12.994 13.7408C13.219 13.8713 13.4463 13.9905 13.6746 14.0974C14.3453 13.5166 14.8945 12.8091 15.2909 12.0154C15.6873 11.2217 15.9229 10.3575 15.9843 9.47251C15.7503 9.55463 15.5106 9.63001 15.2631 9.69638C13.8411 10.0778 12.4585 10.0969 11.3459 9.82013V9.81901ZM9.25 11.25C8.74375 11.25 8.27576 11.0824 7.90001 10.8C7.34426 11.8013 7.00451 13.1423 7.00451 14.6149C7.00451 14.8736 7.01576 15.129 7.03488 15.3776C7.74722 15.6248 8.496 15.7507 9.25 15.75C10.3075 15.75 11.3088 15.507 12.2009 15.0728C12.0076 14.9086 11.8211 14.7367 11.6418 14.5575C10.6011 13.5158 9.89238 12.3289 9.57625 11.2275C9.4705 11.2421 9.36138 11.25 9.25 11.25V11.25ZM7 9.00001C7 8.91001 7.00563 8.82001 7.01575 8.73113C5.86825 8.75026 4.53513 9.12601 3.25826 9.86401C3.03993 9.99002 2.82676 10.1248 2.61926 10.2679C2.78593 11.139 3.12259 11.9688 3.60998 12.7099C4.09738 13.4509 4.72598 14.0887 5.45988 14.5868C5.50556 14.3398 5.5611 14.0947 5.62638 13.8521C6.00888 12.4268 6.68388 11.2174 7.48263 10.3928C7.169 9.99638 6.99888 9.50546 7 9.00001ZM3.23463 8.28901C4.66001 7.90651 6.04488 7.88963 7.15863 8.16863C7.37913 7.61288 7.8145 7.16738 8.36238 6.93113C7.77288 5.94788 6.78063 4.98151 5.50376 4.24463C5.28579 4.11874 5.06286 4.00165 4.83551 3.89363C4.16412 4.4731 3.61379 5.17945 3.21609 5.97214C2.81839 6.76484 2.58116 7.62827 2.51801 8.51288C2.74976 8.42963 2.98826 8.35538 3.23463 8.28901V8.28901ZM9.25 10.125C9.54837 10.125 9.83452 10.0065 10.0455 9.7955C10.2565 9.58452 10.375 9.29838 10.375 9.00001C10.375 8.70164 10.2565 8.41549 10.0455 8.20451C9.83452 7.99353 9.54837 7.87501 9.25 7.87501C8.95164 7.87501 8.66549 7.99353 8.45451 8.20451C8.24353 8.41549 8.12501 8.70164 8.12501 9.00001C8.12501 9.29838 8.24353 9.58452 8.45451 9.7955C8.66549 10.0065 8.95164 10.125 9.25 10.125Z" fill="#F8F8F8"/>
<path d="M9.25 16.875C7.16142 16.875 5.15838 16.0453 3.68153 14.5685C2.20469 13.0916 1.375 11.0886 1.375 9C1.375 6.91142 2.20469 4.90838 3.68153 3.43153C5.15838 1.95469 7.16142 1.125 9.25 1.125C11.3386 1.125 13.3416 1.95469 14.8185 3.43153C16.2953 4.90838 17.125 6.91142 17.125 9C17.125 11.0886 16.2953 13.0916 14.8185 14.5685C13.3416 16.0453 11.3386 16.875 9.25 16.875ZM9.25 18C11.6369 18 13.9261 17.0518 15.614 15.364C17.3018 13.6761 18.25 11.3869 18.25 9C18.25 6.61305 17.3018 4.32387 15.614 2.63604C13.9261 0.948212 11.6369 0 9.25 0C6.86305 0 4.57387 0.948212 2.88604 2.63604C1.19821 4.32387 0.25 6.61305 0.25 9C0.25 11.3869 1.19821 13.6761 2.88604 15.364C4.57387 17.0518 6.86305 18 9.25 18V18Z" fill="#F8F8F8"/>
</svg>
