<svg width="19" height="18" viewBox="0 0 19 18" fill="none" xmlns="http://www.w3.org/2000/svg">
<path d="M9.75 13.5V12.375C10.1849 12.3374 10.5927 12.1476 10.9014 11.8389C11.2101 11.5302 11.3999 11.1224 11.4375 10.6875H12.5625C12.5261 11.4217 12.2181 12.1161 11.6984 12.6359C11.1786 13.1556 10.4842 13.4636 9.75 13.5V13.5Z" fill="#F8F8F8"/>
<path d="M9.75 15.75C8.40784 15.7483 7.12113 15.2144 6.17208 14.2654C5.22303 13.3163 4.68914 12.0296 4.6875 10.6875C4.71777 9.70069 5.00764 8.73933 5.52788 7.90028L9.27356 1.93329C9.32766 1.85735 9.39913 1.79545 9.48201 1.75274C9.56488 1.71003 9.65677 1.68774 9.75 1.68774C9.84323 1.68774 9.93512 1.71003 10.018 1.75274C10.1009 1.79545 10.1723 1.85735 10.2264 1.93329L13.9558 7.87103C14.4848 8.71786 14.7803 9.68953 14.8125 10.6875C14.8109 12.0296 14.277 13.3163 13.3279 14.2654C12.3789 15.2144 11.0922 15.7483 9.75 15.75V15.75ZM9.75 3.28947L6.49763 8.46897C6.07856 9.13555 5.84227 9.90067 5.8125 10.6875C5.8125 11.7318 6.22734 12.7333 6.96577 13.4717C7.70419 14.2101 8.70571 14.625 9.75 14.625C10.7943 14.625 11.7958 14.2101 12.5342 13.4717C13.2727 12.7333 13.6875 11.7318 13.6875 10.6875C13.6554 9.88967 13.4132 9.11449 12.9855 8.44028L9.75 3.28947Z" fill="#F8F8F8"/>
</svg>
