<svg width="18" height="18" viewBox="0 0 18 18" fill="none" xmlns="http://www.w3.org/2000/svg">
<path d="M11.1487 3.06281L12.1922 3.93398C12.6363 4.30324 13.1579 4.50016 13.6912 4.5H16.425C17.2941 4.5 18 5.38242 18 6.46875V9.45703C18 11.3941 16.9453 13.0816 15.4434 13.5527L12.4059 14.502C11.4244 15.2613 10.2544 15.75 9 15.75C7.74562 15.75 6.57562 15.2613 5.59406 14.502L2.55656 13.5527C1.05413 13.0816 0 11.3941 0 9.45703V6.46875C0 5.38242 0.705094 4.5 1.575 4.5H4.30875C4.84312 4.5 5.36344 4.30313 5.80781 3.93398L6.85125 3.06281C7.48687 2.53301 8.235 2.25 9 2.25C9.765 2.25 10.5131 2.53301 11.1487 3.06281ZM3.72094 12.1746C3.07688 10.9406 2.7 9.46055 2.7 7.875V6.1875H1.575C1.45069 6.1875 1.35 6.31406 1.35 6.46875V9.45703C1.35 10.6207 1.98253 11.6332 2.88281 11.9145L3.72094 12.1746V12.1746ZM16.65 9.45703V6.46875C16.65 6.31406 16.5487 6.1875 16.425 6.1875H15.3V7.875C15.3 9.46055 14.9231 10.9406 14.2791 12.1746L15.1172 11.9145C16.0172 11.6332 16.65 10.6207 16.65 9.45703ZM5.85 7.875H12.15C12.3975 7.875 12.6 7.62188 12.6 7.3125C12.6 7.00312 12.3975 6.75 12.15 6.75H5.85C5.6025 6.75 5.4 7.00312 5.4 7.3125C5.4 7.62188 5.6025 7.875 5.85 7.875ZM5.85 9C5.6025 9 5.4 9.25312 5.4 9.5625C5.4 9.87188 5.6025 10.125 5.85 10.125H12.15C12.3975 10.125 12.6 9.87188 12.6 9.5625C12.6 9.25312 12.3975 9 12.15 9H5.85ZM6.75 12.375H11.25C11.4975 12.375 11.7 12.1219 11.7 11.8125C11.7 11.5031 11.4975 11.25 11.25 11.25H6.75C6.5025 11.25 6.3 11.5031 6.3 11.8125C6.3 12.1219 6.5025 12.375 6.75 12.375Z" fill="#F8F8F8"/>
</svg>
