<svg width="19" height="18" viewBox="0 0 19 18" fill="none" xmlns="http://www.w3.org/2000/svg">
<path d="M6.45325 4.49658C8.647 4.49846 8.44525 7.48233 8.4445 8.67596C8.443 10.1992 8.81688 13.2738 7.642 14.4442C6.44425 15.6367 4.05063 16.2318 2.85475 15.2362C1.65888 14.2402 3.661 4.49433 6.45325 4.49658V4.49658ZM12.0561 4.50108C9.86238 4.49921 10.0593 7.48346 10.0581 8.67708C10.057 10.2007 9.67788 13.2746 10.8513 14.4468C12.0468 15.6416 14.4396 16.2401 15.637 15.2467C16.8344 14.253 14.848 4.50333 12.0558 4.50108H12.0561Z" fill="#F8F8F8"/>
<path fill-rule="evenodd" clip-rule="evenodd" d="M8.88139 2.25H9.63139L9.62726 7.68525C9.62651 8.47312 9.27514 8.92462 8.87764 9.15637C8.65155 9.28658 8.39732 9.36017 8.13664 9.37088H8.12689V8.62088H8.12314H8.12501C8.16065 8.61871 8.1961 8.6142 8.23114 8.60737C8.30764 8.59237 8.40551 8.5635 8.50039 8.50837C8.66539 8.41237 8.87651 8.20838 8.87726 7.6845L8.88139 2.25Z" fill="#F8F8F8"/>
<path fill-rule="evenodd" clip-rule="evenodd" d="M9.63138 2.25H8.88138L8.87726 7.6845C8.87651 8.47238 9.22676 8.92463 9.62388 9.15713C9.8498 9.28754 10.1039 9.36138 10.3645 9.37238H10.375L10.3758 8.99738C10.3758 8.62238 10.3765 8.62238 10.3765 8.62238H10.3799H10.378C10.3746 8.62238 10.3683 8.62238 10.3589 8.62125C10.2336 8.61021 10.1121 8.57209 10.003 8.5095C9.83801 8.41313 9.62688 8.20913 9.62763 7.68525L9.63138 2.25Z" fill="#F8F8F8"/>
</svg>
