<svg width="25" height="25" viewBox="0 0 25 25" fill="none" xmlns="http://www.w3.org/2000/svg">
<path d="M16.1667 14.5H15.3767L15.0967 14.23C16.1106 13.054 16.6678 11.5527 16.6667 10C16.6667 8.71442 16.2855 7.45772 15.5713 6.3888C14.8571 5.31988 13.8419 4.48676 12.6542 3.99479C11.4665 3.50282 10.1595 3.37409 8.89866 3.6249C7.63778 3.8757 6.47959 4.49477 5.57055 5.40381C4.66151 6.31285 4.04245 7.47104 3.79164 8.73192C3.54084 9.99279 3.66956 11.2997 4.16153 12.4874C4.6535 13.6752 5.48662 14.6903 6.55554 15.4046C7.62446 16.1188 8.88117 16.5 10.1667 16.5C11.7767 16.5 13.2567 15.91 14.3967 14.93L14.6667 15.21V16L19.6667 20.99L21.1567 19.5L16.1667 14.5ZM10.1667 14.5C7.67675 14.5 5.66675 12.49 5.66675 10C5.66675 7.51 7.67675 5.5 10.1667 5.5C12.6567 5.5 14.6667 7.51 14.6667 10C14.6667 12.49 12.6567 14.5 10.1667 14.5Z" fill="#7A8998"/>
</svg>
