<svg width="48" height="49" viewBox="0 0 48 49" fill="none" xmlns="http://www.w3.org/2000/svg">
<path d="M24 4.5C12.96 4.5 4 13.46 4 24.5C4 35.54 12.96 44.5 24 44.5C35.04 44.5 44 35.54 44 24.5C44 13.46 35.04 4.5 24 4.5ZM38.92 18.74L33.36 21.04C32.8591 19.6922 32.0724 18.4689 31.0539 17.4539C30.0355 16.4389 28.8095 15.6564 27.46 15.16L29.76 9.6C33.96 11.2 37.3 14.54 38.92 18.74ZM24 30.5C20.68 30.5 18 27.82 18 24.5C18 21.18 20.68 18.5 24 18.5C27.32 18.5 30 21.18 30 24.5C30 27.82 27.32 30.5 24 30.5ZM18.26 9.58L20.6 15.14C19.2346 15.6376 17.9941 16.4268 16.9648 17.4526C15.9355 18.4785 15.1422 19.7163 14.64 21.08L9.08 18.76C9.88197 16.6723 11.1135 14.7763 12.6949 13.1949C14.2763 11.6135 16.1723 10.382 18.26 9.58ZM9.08 30.24L14.64 27.94C15.1387 29.3001 15.9287 30.5348 16.9548 31.5574C17.9809 32.58 19.2182 33.3659 20.58 33.86L18.24 39.42C16.1568 38.6144 14.2654 37.3813 12.6877 35.8002C11.11 34.2191 9.88108 32.325 9.08 30.24ZM29.76 39.42L27.46 33.86C28.8158 33.3577 30.0458 32.5661 31.0647 31.5403C32.0836 30.5145 32.8669 29.2791 33.36 27.92L38.92 30.26C38.1154 32.3406 36.885 34.2302 35.3076 35.8076C33.7302 37.385 31.8406 38.6154 29.76 39.42Z" fill="#19B0E0"/>
</svg>
