<svg width="20" height="20" viewBox="0 0 20 20" fill="none" xmlns="http://www.w3.org/2000/svg">
<path d="M10.7417 9.24992C9.25833 8.75825 8.54166 8.44992 8.54166 7.66658C8.54166 6.81658 9.46666 6.50825 10.05 6.50825C11.1417 6.50825 11.5417 7.33325 11.6333 7.62492L12.95 7.06658C12.825 6.69158 12.2667 5.46658 10.8333 5.19992V4.16658H9.16666V5.21659C7.09999 5.68325 7.09166 7.59992 7.09166 7.68325C7.09166 9.57492 8.96666 10.1083 9.88333 10.4416C11.2 10.9083 11.7833 11.3333 11.7833 12.1333C11.7833 13.0749 10.9083 13.4749 10.1333 13.4749C8.61666 13.4749 8.18333 11.9166 8.13333 11.7333L6.74999 12.2916C7.27499 14.1166 8.64999 14.6082 9.16666 14.7582V15.8333H10.8333V14.7999C11.1667 14.7249 13.25 14.3083 13.25 12.1166C13.25 10.9583 12.7417 9.94158 10.7417 9.24992V9.24992ZM2.49999 17.4999H0.833328V12.4999H5.83333V14.1666H3.76666C5.10833 16.1749 7.39999 17.4999 9.99999 17.4999C11.9891 17.4999 13.8968 16.7097 15.3033 15.3032C16.7098 13.8967 17.5 11.989 17.5 9.99992H19.1667C19.1667 15.0666 15.0667 19.1666 9.99999 19.1666C6.89999 19.1666 4.15833 17.6249 2.49999 15.2749V17.4999ZM0.833328 9.99992C0.833328 4.93325 4.93333 0.833252 9.99999 0.833252C13.1 0.833252 15.8417 2.37492 17.5 4.72492V2.49992H19.1667V7.49992H14.1667V5.83325H16.2333C14.8917 3.82492 12.6 2.49992 9.99999 2.49992C8.01087 2.49992 6.10322 3.29009 4.69669 4.69662C3.29017 6.10314 2.49999 8.01079 2.49999 9.99992H0.833328Z" fill="#0070CD"/>
</svg>
