<svg width="24" height="25" viewBox="0 0 24 25" fill="none" xmlns="http://www.w3.org/2000/svg">
<path d="M7 18.5C5.9 18.5 5.01 19.4 5.01 20.5C5.01 21.6 5.9 22.5 7 22.5C8.1 22.5 9 21.6 9 20.5C9 19.4 8.1 18.5 7 18.5ZM17 18.5C15.9 18.5 15.01 19.4 15.01 20.5C15.01 21.6 15.9 22.5 17 22.5C18.1 22.5 19 21.6 19 20.5C19 19.4 18.1 18.5 17 18.5ZM15.55 13.5C16.3 13.5 16.96 13.09 17.3 12.47L20.88 5.98C20.9643 5.82843 21.0075 5.65747 21.0054 5.48406C21.0034 5.31064 20.956 5.14077 20.8681 4.99126C20.7803 4.84175 20.6549 4.71778 20.5043 4.63162C20.3538 4.54545 20.1834 4.50009 20.01 4.5H5.21L4.27 2.5H1V4.5H3L6.6 12.09L5.25 14.53C4.52 15.87 5.48 17.5 7 17.5H19V15.5H7L8.1 13.5H15.55ZM6.16 6.5H18.31L15.55 11.5H8.53L6.16 6.5Z" fill="#19B0E0"/>
</svg>
