<svg width="24" height="25" viewBox="0 0 24 25" fill="none" xmlns="http://www.w3.org/2000/svg">
<path d="M11 4.5C12.93 4.5 16 5.9 16 9.65C16 11.81 14.28 14.32 11 16.97C7.72 14.32 6 11.8 6 9.65C6 5.9 9.07 4.5 11 4.5ZM11 2.5C7.73 2.5 4 4.96 4 9.65C4 12.77 6.33 16.06 11 19.5C15.67 16.06 18 12.77 18 9.65C18 4.96 14.27 2.5 11 2.5Z" fill="#19B0E0"/>
<path d="M11 7.5C9.9 7.5 9 8.4 9 9.5C9 10.6 9.9 11.5 11 11.5C11.5304 11.5 12.0391 11.2893 12.4142 10.9142C12.7893 10.5391 13 10.0304 13 9.5C13 8.96957 12.7893 8.46086 12.4142 8.08579C12.0391 7.71071 11.5304 7.5 11 7.5ZM4 20.5H18V22.5H4V20.5Z" fill="#19B0E0"/>
</svg>
