<svg width="48" height="49" viewBox="0 0 48 49" fill="none" xmlns="http://www.w3.org/2000/svg">
<path d="M40 16.5H34V8.5H6C3.8 8.5 2 10.3 2 12.5V34.5H6C6 37.82 8.68 40.5 12 40.5C15.32 40.5 18 37.82 18 34.5H30C30 37.82 32.68 40.5 36 40.5C39.32 40.5 42 37.82 42 34.5H46V24.5L40 16.5ZM39 19.5L42.92 24.5H34V19.5H39ZM12 36.5C10.9 36.5 10 35.6 10 34.5C10 33.4 10.9 32.5 12 32.5C13.1 32.5 14 33.4 14 34.5C14 35.6 13.1 36.5 12 36.5ZM16.44 30.5C15.34 29.28 13.78 28.5 12 28.5C10.22 28.5 8.66 29.28 7.56 30.5H6V12.5H30V30.5H16.44ZM36 36.5C34.9 36.5 34 35.6 34 34.5C34 33.4 34.9 32.5 36 32.5C37.1 32.5 38 33.4 38 34.5C38 35.6 37.1 36.5 36 36.5Z" fill="#19B0E0"/>
</svg>
