<svg width="48" height="49" viewBox="0 0 48 49" fill="none" xmlns="http://www.w3.org/2000/svg">
<path d="M24 4.5C12.96 4.5 4 13.46 4 24.5C4 35.54 12.96 44.5 24 44.5C35.04 44.5 44 35.54 44 24.5C44 13.46 35.04 4.5 24 4.5ZM24 40.5C15.18 40.5 8 33.32 8 24.5C8 15.68 15.18 8.5 24 8.5C32.82 8.5 40 15.68 40 24.5C40 33.32 32.82 40.5 24 40.5ZM24.62 22.78C21.08 21.88 19.94 20.9 19.94 19.44C19.94 17.76 21.52 16.58 24.14 16.58C26.9 16.58 27.94 17.9 28.02 19.86H31.44C31.34 17.18 29.7 14.72 26.46 13.92V10.5H21.8V13.88C18.78 14.52 16.36 16.48 16.36 19.5C16.36 23.08 19.34 24.88 23.68 25.92C27.58 26.84 28.36 28.22 28.36 29.66C28.36 30.72 27.58 32.44 24.16 32.44C20.96 32.44 19.7 31 19.52 29.16H16.08C16.28 32.56 18.8 34.48 21.8 35.1V38.5H26.48V35.16C29.52 34.58 31.92 32.84 31.94 29.62C31.92 25.22 28.14 23.7 24.62 22.78V22.78Z" fill="#19B0E0"/>
</svg>
