<svg width="24" height="24" viewBox="0 0 24 24" fill="none" xmlns="http://www.w3.org/2000/svg">
<path d="M12 2.25C7.46475 2.25 3.75 5.96475 3.75 10.5V15C3.75 15.9698 4.383 16.7962 5.25 17.1097V17.25C5.25 19.3095 6.9405 21 9 21H9.96075C10.2218 21.4485 10.6957 21.75 11.25 21.75H12.75C13.5765 21.75 14.25 21.0765 14.25 20.25C14.25 19.4235 13.5765 18.75 12.75 18.75H11.25C10.6965 18.75 10.2218 19.0515 9.96075 19.5H9C8.40326 19.5 7.83097 19.2629 7.40901 18.841C6.98705 18.419 6.75 17.8467 6.75 17.25H8.25V10.5H5.25C5.25 6.78525 8.28525 3.75 12 3.75C15.7148 3.75 18.75 6.78525 18.75 10.5H15.75V17.25H18C19.2338 17.25 20.25 16.2338 20.25 15V10.5C20.25 5.96475 16.5352 2.25 12 2.25ZM5.25 12H6.75V15.75H6C5.58375 15.75 5.25 15.4163 5.25 15V12ZM17.25 12H18.75V15C18.75 15.4163 18.4163 15.75 18 15.75H17.25V12Z" fill="#19B0E0"/>
</svg>
