<svg width="20" height="20" viewBox="0 0 20 20" fill="none" xmlns="http://www.w3.org/2000/svg">
<path d="M8.75 1.875C8.06625 1.875 7.5 2.44125 7.5 3.125V3.75H5.625V3.125H4.375V3.75H3.125C2.44125 3.75 1.875 4.31625 1.875 5V15C1.875 15.6837 2.44125 16.25 3.125 16.25H16.875C17.5587 16.25 18.125 15.6837 18.125 15V5C18.125 4.31625 17.5587 3.75 16.875 3.75H15.625V3.125H14.375V3.75H12.5V3.125C12.5 2.44125 11.9337 1.875 11.25 1.875H8.75ZM8.75 3.125H11.25V3.75H8.75V3.125ZM3.125 5H16.875V15H15.625V5.625H14.375V15H5.625V5.625H4.375V15H3.125V5Z" fill="#0070CD"/>
</svg>
