<svg width="18" height="19" viewBox="0 0 18 19" fill="none" xmlns="http://www.w3.org/2000/svg">
<path d="M9 15.9167L7.9125 14.9417C5.95 13.1917 4.3905 11.6697 3.234 10.3757C2.078 9.08217 1.5 7.71667 1.5 6.27917C1.5 5.10417 1.89375 4.12292 2.68125 3.33542C3.46875 2.54792 4.45 2.15417 5.625 2.15417C6.2875 2.15417 6.9125 2.29467 7.5 2.57567C8.0875 2.85717 8.5875 3.24167 9 3.72917C9.4125 3.24167 9.9125 2.85717 10.5 2.57567C11.0875 2.29467 11.7125 2.15417 12.375 2.15417C13.55 2.15417 14.5312 2.54792 15.3187 3.33542C16.1062 4.12292 16.5 5.10417 16.5 6.27917C16.5 7.71667 15.922 9.08217 14.766 10.3757C13.6095 11.6697 12.05 13.1917 10.0875 14.9417L9 15.9167ZM9 13.8917C10.7875 12.2667 12.2345 10.8667 13.341 9.69167C14.447 8.51667 15 7.37917 15 6.27917C15 5.52917 14.75 4.90417 14.25 4.40417C13.75 3.90417 13.125 3.65417 12.375 3.65417C11.7875 3.65417 11.2437 3.81967 10.7437 4.15067C10.2437 4.48217 9.9 4.90417 9.7125 5.41667H8.2875C8.1 4.90417 7.75625 4.48217 7.25625 4.15067C6.75625 3.81967 6.2125 3.65417 5.625 3.65417C4.875 3.65417 4.25 3.90417 3.75 4.40417C3.25 4.90417 3 5.52917 3 6.27917C3 7.37917 3.55325 8.51667 4.65975 9.69167C5.76575 10.8667 7.2125 12.2667 9 13.8917Z" fill="#7A8998"/>
</svg>
