<svg width="18" height="18" viewBox="0 0 18 18" fill="none" xmlns="http://www.w3.org/2000/svg">
<path d="M9 8.25C8.80109 8.25 8.61032 8.32902 8.46967 8.46967C8.32902 8.61032 8.25 8.80109 8.25 9C8.25 9.19891 8.32902 9.38968 8.46967 9.53033C8.61032 9.67098 8.80109 9.75 9 9.75C9.19891 9.75 9.38968 9.67098 9.53033 9.53033C9.67098 9.38968 9.75 9.19891 9.75 9C9.75 8.80109 9.67098 8.61032 9.53033 8.46967C9.38968 8.32902 9.19891 8.25 9 8.25ZM9.375 1.5C12.75 1.5 12.8325 4.1775 11.0625 5.0625C10.32 5.43 9.99 6.2175 9.8475 6.915C10.2075 7.065 10.5225 7.2975 10.7625 7.5975C13.5375 6.0975 16.5225 6.69 16.5225 9.375C16.5225 12.75 13.845 12.825 12.96 11.0475C12.585 10.305 11.79 9.975 11.0925 9.8325C10.9425 10.1925 10.71 10.5 10.41 10.755C11.9025 13.5225 11.31 16.5 8.625 16.5C5.25 16.5 5.1825 13.815 6.9525 12.93C7.6875 12.5625 8.0175 11.7825 8.1675 11.0925C7.8 10.9425 7.4775 10.7025 7.2375 10.4025C4.47 11.8875 1.5 11.3025 1.5 8.625C1.5 5.25 4.17 5.1675 5.055 6.945C5.43 7.6875 6.2175 8.01 6.915 8.1525C7.0575 7.7925 7.2975 7.4775 7.605 7.2375C6.1125 4.47 6.705 1.5 9.375 1.5Z" fill="#F8F8F8"/>
</svg>
