<svg width="19" height="18" viewBox="0 0 19 18" fill="none" xmlns="http://www.w3.org/2000/svg">
<path d="M4.7475 2.45315C5.21554 2.28618 5.72135 2.2555 6.20614 2.36465C6.69093 2.47381 7.13478 2.71834 7.48608 3.0698C7.83739 3.42126 8.08171 3.86521 8.19065 4.35005C8.2996 4.83489 8.26868 5.34069 8.1015 5.80865L16.2353 13.9424L14.6438 15.5332L6.51 7.40015C6.04197 7.56712 5.53615 7.59781 5.05136 7.48865C4.56657 7.37949 4.12272 7.13497 3.77142 6.78351C3.42012 6.43205 3.17579 5.98809 3.06685 5.50326C2.95791 5.01842 2.98882 4.51262 3.156 4.04465L4.833 5.7224C4.93678 5.82985 5.06092 5.91556 5.19817 5.97452C5.33543 6.03348 5.48305 6.06451 5.63243 6.06581C5.7818 6.06711 5.92994 6.03864 6.0682 5.98208C6.20646 5.92551 6.33207 5.84198 6.4377 5.73635C6.54333 5.63072 6.62686 5.50511 6.68343 5.36685C6.73999 5.22859 6.76846 5.08045 6.76716 4.93108C6.76586 4.7817 6.73483 4.63408 6.67587 4.49682C6.61691 4.35957 6.5312 4.23543 6.42375 4.13165L4.74675 2.4524L4.7475 2.45315ZM12.5228 3.86615L14.9093 2.54015L15.9698 3.60065L14.6438 5.98715L13.3178 6.25265L11.7278 7.8434L10.6665 6.7829L12.2573 5.19215L12.5228 3.86615V3.86615ZM7.2195 9.69965L8.81025 11.2912L5.09775 15.0037C4.89303 15.2065 4.61829 15.323 4.33019 15.3292C4.04209 15.3354 3.76259 15.2308 3.54934 15.0369C3.33609 14.8431 3.20535 14.5749 3.18408 14.2875C3.1628 14.0001 3.25262 13.7155 3.435 13.4924L3.50775 13.4122L7.22025 9.69965H7.2195Z" fill="#F8F8F8"/>
</svg>
