<svg width="18" height="18" viewBox="0 0 18 18" fill="none" xmlns="http://www.w3.org/2000/svg">
<path d="M9.00001 0.130087C5.24908 0.130087 2.20639 3.1707 2.20639 6.92301C2.20639 10.6732 5.24978 13.7152 9.00001 13.7166C12.7495 13.7152 15.7936 10.6732 15.7936 6.92301C15.7936 3.17001 12.7482 0.129395 9.00001 0.129395V0.130087ZM9.00001 0.908933C12.3189 0.908933 15.0148 3.60201 15.0148 6.92301C15.0148 10.2433 12.3203 12.9364 9.00001 12.9378C7.40488 12.9378 5.87509 12.3041 4.74717 11.1762C3.61924 10.0483 2.98558 8.51848 2.98558 6.92336C2.98558 5.32823 3.61924 3.79844 4.74717 2.67052C5.87509 1.54259 7.40488 0.908933 9.00001 0.908933V0.908933ZM7.2907 2.05539C6.47654 2.13501 5.66447 3.18386 6.1657 4.13232C6.63647 5.02124 7.61678 4.93539 7.91793 5.94963C8.19831 5.5647 8.75285 5.12993 9.69231 5.58201C10.3002 3.33063 9.01731 1.89063 7.2907 2.05539V2.05539ZM12.8506 5.86309C11.8468 5.82501 11.4127 6.71393 10.3846 6.46886C10.5764 6.90293 10.6837 7.61116 9.82178 8.19963C11.4674 9.85078 13.3422 9.4527 14.0629 7.87493C14.4014 7.1307 13.9237 5.90186 12.8513 5.86309H12.8506ZM8.82693 6.03616C8.41847 6.11924 8.11316 6.48963 8.11316 6.92301C8.11316 7.4187 8.50431 7.80986 9.00001 7.80986C9.4957 7.80986 9.88685 7.4187 9.88685 6.92301C9.88685 6.42732 9.4957 6.03616 9.00001 6.03616C8.9377 6.03616 8.88508 6.0237 8.82693 6.03616ZM7.48524 6.98809C5.23247 7.58693 4.63985 9.4257 5.64647 10.8387C6.12139 11.504 7.43401 11.6833 8.00447 10.7736C8.53962 9.92347 7.96985 9.11901 8.69678 8.35055C8.22531 8.30001 7.56347 8.02793 7.48524 6.98809ZM7.61539 14.5384C7.61539 15.9237 4.84616 16.1612 4.84616 17.3076V17.9999H13.1539V17.3076C13.1539 16.1612 10.3846 15.9237 10.3846 14.5384C10.3846 14.5384 10.1222 14.7551 9.00001 14.7551C7.87777 14.7551 7.61539 14.5384 7.61539 14.5384Z" fill="#F8F8F8"/>
</svg>
